<svg xmlns="http://www.w3.org/2000/svg" version="1.1" xmlns:xlink="http://www.w3.org/1999/xlink" xmlns:svgjs="http://svgjs.dev/svgjs" width="1000" height="1000" viewBox="0 0 1000 1000"><g transform="matrix(1,0,0,1,0,0)"><svg viewBox="0 0 280 280" data-background-color="#97978d" preserveAspectRatio="xMidYMid meet" height="1000" width="1000" xmlns="http://www.w3.org/2000/svg" xmlns:xlink="http://www.w3.org/1999/xlink"><g id="tight-bounds" transform="matrix(1,0,0,1,0,0)"><svg viewBox="0 0 280 280" height="280" width="280"><g><svg viewBox="0 0 280 280" height="280" width="280"><g><svg viewBox="0 0 280 280" height="280" width="280"><g id="textblocktransform"><svg viewBox="0 0 280 280" height="280" width="280" id="textblock"><g><svg viewBox="0 0 280 280" height="280" width="280"><g transform="matrix(1,0,0,1,74.00336708925556,96.02693343688114)"><svg viewBox="0 0 131.99326582148888 87.94613312623773" height="87.94613312623773" width="131.99326582148888"><g><svg xmlns="http://www.w3.org/2000/svg" xmlns:xlink="http://www.w3.org/1999/xlink" version="1.1" x="0" y="0" viewBox="5.999998569488525 24.517000198364258 90.00100708007812 59.967002868652344" enable-background="new 0 0 100 100" xml:space="preserve" height="87.94613312623773" width="131.99326582148888" class="icon-o-0" data-fill-palette-color="accent" id="o-0"><g fill="#ffffff" data-fill-palette-color="accent"><path fill="#ffffff" d="M47.227 71.365V32.013c0-4.139-3.356-7.496-7.496-7.496H20.992v41.227C46.339 65.744 47.227 71.365 47.227 71.365" data-fill-palette-color="accent"></path><path fill="#ffffff" d="M80.958 65.744c-0.028 0 0-41.227 0-41.227h-18.74c-4.143 0-7.496 3.356-7.496 7.496v33.731 5.622C54.722 71.365 56.021 65.744 80.958 65.744" data-fill-palette-color="accent"></path><path fill="#ffffff" d="M88.504 30.139v39.353c-35.195 0-33.965 11.243-33.965 11.243h-7.144c0 0 1.329-11.176-33.899-11.24V30.139c-4.141 0-7.496 5.23-7.496 9.37v29.983c0 4.139 3.354 7.496 7.496 7.496 20.079 0 27.494 4.041 30.018 6.189 1.005 0.853 2.279 1.307 3.598 1.307h7.635c1.255 0 2.474-0.416 3.451-1.201 9.297-7.462 30.307-6.295 30.307-6.295 4.139 0 7.496-3.356 7.496-7.496V39.509C96 35.369 92.644 30.139 88.504 30.139" data-fill-palette-color="accent"></path></g></svg></g></svg></g><g><path d="M31.25 193.921V193.921C31.653 196.138 31.444 198.051 30.623 199.662 29.8 201.266 28.555 202.385 26.887 203.019V203.019C24.681 203.859 22.55 203.583 20.496 202.193 18.438 200.812 16.747 198.5 15.422 195.258V195.258L10.044 181.116 11.259 180.366C12.075 180.964 13.074 181.911 14.255 183.207V183.207L35.724 175.043 34.983 172.004 37.08 171.249C38.816 175.144 40.545 179.354 42.266 183.879V183.879C43.449 186.99 43.756 189.729 43.188 192.095 42.619 194.461 41.312 196.033 39.266 196.811V196.811C37.909 197.327 36.472 197.366 34.958 196.928 33.451 196.493 32.215 195.491 31.25 193.921ZM39.374 185.872L37.063 181.643 29.002 184.708 29.719 186.596C30.455 188.53 31.422 189.822 32.62 190.473 33.825 191.122 35.025 191.219 36.221 190.764V190.764C37.201 190.392 38.005 189.735 38.633 188.793 39.255 187.855 39.502 186.881 39.374 185.872ZM17.11 189.231L18.029 192.627 18.248 193.342C18.828 194.867 19.71 195.873 20.895 196.358 22.08 196.844 23.271 196.86 24.468 196.405V196.405C25.856 195.877 26.867 194.925 27.5 193.549 28.131 192.166 28.173 190.721 27.628 189.211V189.211L26.305 185.734ZM61.297 213.664V213.664C64.026 216.81 65.176 220.347 64.747 224.275 64.313 228.207 62.345 231.692 58.843 234.729V234.729C55.472 237.654 51.9 239.022 48.129 238.835 44.358 238.647 41.137 237.012 38.464 233.932V233.932C35.713 230.761 34.505 227.253 34.839 223.407 35.177 219.567 37.052 216.167 40.464 213.208V213.208C43.9 210.227 47.568 208.793 51.467 208.905 55.361 209.012 58.638 210.598 61.297 213.664ZM55.467 213.744V213.744C54.216 213.547 52.702 213.825 50.923 214.578 49.144 215.331 47.383 216.463 45.64 217.976V217.976C42.975 220.287 41.254 222.706 40.478 225.232 39.696 227.762 40.158 230.009 41.861 231.973V231.973C42.3 232.479 42.943 233.018 43.791 233.59V233.59C45.178 233.853 46.805 233.619 48.671 232.886 50.547 232.154 52.367 231.024 54.13 229.494V229.494C56.795 227.182 58.495 224.76 59.23 222.226 59.969 219.698 59.565 217.542 58.018 215.758V215.758C57.366 215.007 56.515 214.336 55.467 213.744ZM90.303 236.843V236.843C93.954 238.845 96.261 241.763 97.222 245.596 98.18 249.434 97.544 253.385 95.315 257.449V257.449C93.168 261.363 90.294 263.886 86.693 265.019 83.091 266.152 79.502 265.738 75.927 263.776V263.776C72.246 261.758 69.895 258.887 68.873 255.165 67.857 251.446 68.435 247.607 70.607 243.648V243.648C72.795 239.659 75.736 237.04 79.432 235.792 83.121 234.541 86.745 234.891 90.303 236.843ZM84.863 238.942V238.942C83.622 239.191 82.298 239.978 80.891 241.301 79.485 242.625 78.226 244.298 77.116 246.322V246.322C75.42 249.415 74.646 252.281 74.795 254.919 74.94 257.563 76.153 259.51 78.432 260.76V260.76C79.019 261.082 79.81 261.364 80.804 261.607V261.607C82.196 261.372 83.64 260.587 85.136 259.252 86.641 257.915 87.955 256.223 89.078 254.176V254.176C90.774 251.083 91.527 248.221 91.337 245.59 91.152 242.962 90.024 241.081 87.954 239.945V239.945C87.082 239.467 86.052 239.132 84.863 238.942ZM133.407 276.905L136.023 277.755 135.633 280 126.944 278.647 120.053 264.91 117.985 266.49 116.773 274.275 120.328 275.362 119.936 277.556 106.372 275.444 106.323 274.017C107.246 273.604 108.563 273.205 110.274 272.82V272.82L113.794 250.214 110.496 249.217 110.888 247.023 124.147 249.087 124.198 250.505C123.031 250.974 121.727 251.378 120.284 251.717V251.717L118.777 261.399 129.919 252.684 127.136 251.808 127.518 249.612 138.242 251.282 138.283 252.697C137.617 253.01 136.338 253.358 134.446 253.741V253.741L125.034 261.044ZM174.416 267.735V267.735C174.847 270.292 174.184 272.549 172.429 274.505 170.673 276.455 168.258 277.689 165.184 278.207V278.207C163.517 278.488 161.663 278.541 159.623 278.367 157.583 278.192 155.858 277.797 154.45 277.18V277.18L154.206 275.97C153.804 273.583 153.65 271.275 153.746 269.047V269.047L156.855 268.523 159.98 274.201C161.933 274.733 164.073 274.803 166.401 274.411V274.411C167.857 273.392 168.445 272.049 168.164 270.382V270.382C167.907 268.858 166.757 267.737 164.712 267.019V267.019L157.696 264.831C153.94 263.453 151.813 261.282 151.314 258.32V258.32C150.892 255.815 151.585 253.6 153.393 251.675 155.2 249.744 157.728 248.504 160.978 247.957V247.957C163.849 247.473 166.781 247.511 169.773 248.07V248.07C170.286 251.117 170.484 253.79 170.367 256.09V256.09L166.924 256.67 164.854 252.045C163.041 251.463 160.976 251.397 158.657 251.848V251.848C157.477 252.907 157.013 254.183 157.264 255.674V255.674C157.409 256.537 157.921 257.258 158.798 257.836 159.682 258.414 161.384 259.035 163.904 259.7 166.424 260.372 168.305 260.997 169.546 261.575 170.778 262.147 171.835 262.928 172.714 263.916 173.588 264.912 174.155 266.185 174.416 267.735ZM217.738 252.014L221.551 250.485 222.614 252.443 210.355 259.46 209.433 258.371C209.891 257.475 210.668 256.342 211.764 254.974V254.974L207.179 246.962 196.966 252.807 201.749 261.164 205.527 259.655 206.599 261.609 194.374 268.605 193.444 267.522C193.908 266.622 194.687 265.488 195.784 264.12V264.12L184.419 244.263 181.264 245.518 180.192 243.564 191.804 236.919 192.729 237.994C192.11 239.089 191.343 240.22 190.429 241.385V241.385L195.098 249.544 205.311 243.698 200.4 235.117 197.245 236.372 196.173 234.419 207.828 227.748 208.744 228.829C208.228 229.796 207.453 230.931 206.418 232.234V232.234ZM222.17 210.721V210.721C224.812 207.502 228.105 205.774 232.05 205.537 235.999 205.304 239.765 206.658 243.348 209.599V209.599C246.798 212.43 248.747 215.721 249.196 219.469 249.645 223.218 248.576 226.669 245.988 229.821V229.821C243.325 233.066 240.07 234.847 236.223 235.164 232.381 235.476 228.714 234.2 225.223 231.335V231.335C221.707 228.448 219.676 225.074 219.131 221.212 218.582 217.355 219.595 213.858 222.17 210.721ZM223.229 216.455V216.455C223.245 217.721 223.774 219.167 224.815 220.794 225.856 222.421 227.269 223.967 229.053 225.431V225.431C231.78 227.669 234.453 228.959 237.074 229.299 239.699 229.644 241.836 228.812 243.486 226.802V226.802C243.911 226.285 244.334 225.56 244.756 224.628V224.628C244.782 223.216 244.277 221.652 243.241 219.935 242.204 218.209 240.784 216.605 238.979 215.124V215.124C236.252 212.886 233.579 211.618 230.958 211.32 228.341 211.016 226.284 211.777 224.786 213.602V213.602C224.155 214.371 223.636 215.322 223.229 216.455ZM258.51 184.571L256.811 189.267 263.736 191.85 266.271 187.189 268.345 188.005 263.054 202.191 261.65 201.943C261.449 200.905 261.315 199.595 261.247 198.013V198.013L239.689 189.973 238.196 192.867 236.122 192.051 240.722 178.691C241.904 175.522 243.702 173.273 246.115 171.944 248.521 170.618 251.009 170.435 253.582 171.395V171.395C256.011 172.301 257.7 173.988 258.647 176.458 259.595 178.928 259.549 181.632 258.51 184.571ZM244.548 178.196L243.036 184.13 253.158 187.904C253.789 186.894 254.294 185.883 254.672 184.87V184.87C255.293 183.205 255.233 181.753 254.491 180.514 253.759 179.271 252.628 178.364 251.1 177.794V177.794C249.925 177.356 248.721 177.159 247.488 177.201 246.263 177.24 245.283 177.572 244.548 178.196Z" fill="#ffffff" data-fill-palette-color="secondary"></path><path d="M21.975 90.302V90.302C23.098 88.429 24.475 87.172 26.105 86.532 27.735 85.891 29.357 85.875 30.971 86.482V86.482C33.118 87.291 34.491 88.857 35.09 91.18 35.693 93.511 35.438 96.278 34.325 99.48V99.48L29.155 113.211 27.801 112.967C27.586 112.015 27.466 110.687 27.441 108.984V108.984L6.606 101.139 5.19 103.827 3.188 103.019C4.43 99.08 5.878 94.916 7.53 90.528V90.528C8.665 87.512 10.197 85.325 12.126 83.968 14.054 82.611 16.011 82.306 17.997 83.054V83.054C19.319 83.551 20.387 84.442 21.2 85.726 22.011 87.017 22.269 88.542 21.975 90.302ZM10.904 90.938L9.874 95.482 17.694 98.426 18.381 96.602C19.086 94.727 19.213 93.167 18.762 91.919 18.308 90.678 17.498 89.838 16.331 89.399V89.399C15.381 89.041 14.375 89.003 13.313 89.283 12.257 89.566 11.454 90.117 10.904 90.938ZM29.237 102.773L30.749 99.717 31.039 99.061C31.597 97.578 31.604 96.28 31.059 95.168 30.508 94.053 29.652 93.278 28.491 92.841V92.841C27.138 92.331 25.793 92.377 24.454 92.978 23.111 93.571 22.152 94.592 21.578 96.041V96.041L20.31 99.411ZM32.35 48.782V48.782C34.993 45.719 38.228 44.123 42.055 43.992 45.882 43.861 49.495 45.262 52.894 48.195V48.195C56.167 51.02 57.98 54.253 58.333 57.895 58.676 61.537 57.556 64.854 54.974 67.846V67.846C52.314 70.929 49.118 72.577 45.386 72.79 41.654 73.004 38.132 71.681 34.818 68.821V68.821C31.479 65.94 29.59 62.623 29.149 58.87 28.718 55.117 29.785 51.754 32.35 48.782ZM33.24 54.359V54.359C33.231 55.587 33.711 56.999 34.68 58.597 35.653 60.2 36.984 61.729 38.67 63.184V63.184C41.261 65.42 43.822 66.736 46.352 67.133 48.887 67.525 50.976 66.77 52.618 64.867V64.867C53.042 64.375 53.473 63.683 53.911 62.79V62.79C53.97 61.422 53.517 59.892 52.551 58.2 51.585 56.508 50.246 54.923 48.534 53.445V53.445C45.943 51.21 43.381 49.915 40.849 49.56 38.322 49.21 36.311 49.901 34.816 51.633V51.633C34.188 52.361 33.663 53.27 33.24 54.359ZM71.776 17.039V17.039C75.319 15.087 78.908 14.715 82.542 15.923 86.175 17.131 89.076 19.702 91.242 23.634V23.634C93.329 27.421 93.904 31.083 92.968 34.62 92.023 38.154 89.82 40.875 86.358 42.782V42.782C82.792 44.747 79.222 45.181 75.649 44.083 72.076 42.985 69.234 40.519 67.121 36.686V36.686C64.993 32.823 64.375 29.056 65.267 25.385 66.168 21.716 68.338 18.934 71.776 17.039ZM70.671 22.577V22.577C70.236 23.726 70.195 25.217 70.547 27.052 70.903 28.893 71.618 30.789 72.694 32.741V32.741C74.345 35.738 76.288 37.863 78.522 39.115 80.763 40.364 82.984 40.382 85.185 39.169V39.169C85.754 38.856 86.399 38.356 87.12 37.672V37.672C87.651 36.41 87.758 34.817 87.441 32.895 87.124 30.972 86.419 29.021 85.328 27.04V27.04C83.677 24.043 81.725 21.938 79.475 20.725 77.227 19.518 75.101 19.466 73.097 20.57V20.57C72.255 21.034 71.446 21.703 70.671 22.577ZM135.201 25.086L137.86 25.092 138.163 27.28 129.741 28.6 119.323 17.959 117.885 20.027 119.068 27.575 122.665 27.525 122.96 29.663 109.801 31.726 109.346 30.428C110.068 29.771 111.164 29.012 112.633 28.15V28.15L109.2 6.245 105.865 6.295 105.57 4.156 118.424 2.141 118.889 3.438C117.951 4.216 116.868 4.973 115.64 5.709V5.709L117.11 15.084 124.819 3.757 121.982 3.768 121.697 1.628 132.084 0 132.539 1.298C132.018 1.783 130.939 2.482 129.304 3.396V3.396L122.781 12.917ZM173.294 24.036V24.036C172.875 26.514 171.553 28.369 169.327 29.6 167.096 30.824 164.489 31.184 161.508 30.68V30.68C159.893 30.407 158.178 29.868 156.363 29.063 154.55 28.252 153.101 27.338 152.015 26.321V26.321L152.173 25.147C152.564 22.832 153.159 20.669 153.956 18.659V18.659L156.967 19.168 158.019 25.358C159.641 26.466 161.58 27.211 163.835 27.593V27.593C165.495 27.126 166.461 26.086 166.734 24.471V24.471C166.984 22.993 166.288 21.601 164.646 20.294V20.294L158.905 16.055C155.911 13.598 154.656 10.935 155.141 8.064V8.064C155.551 5.638 156.89 3.83 159.156 2.639 161.422 1.449 164.127 1.119 167.273 1.651V1.651C170.065 2.123 172.739 3.089 175.297 4.551V4.551C174.797 7.506 174.131 10.017 173.298 12.082V12.082L169.953 11.517 169.528 6.632C168.054 5.522 166.185 4.803 163.92 4.474V4.474C162.501 5.068 161.67 6.088 161.426 7.533V7.533C161.284 8.37 161.525 9.194 162.148 10.005 162.772 10.81 164.131 11.921 166.225 13.338 168.32 14.748 169.842 15.913 170.789 16.833 171.743 17.755 172.463 18.808 172.949 19.993 173.435 21.178 173.55 22.526 173.294 24.036ZM210.107 47.825L213.246 50.27 212.137 52.122 200.266 45.308 200.715 44.006C201.696 43.949 203.026 44.044 204.705 44.289V44.289L209.157 36.533 199.27 30.858 194.63 38.941 197.734 41.366 196.625 43.218 184.78 36.419 185.238 35.122C186.213 35.062 187.543 35.156 189.228 35.405V35.405L200.266 16.175 197.669 14.145 198.778 12.293 210.028 18.75 209.579 20.052C208.36 20.071 207.041 19.984 205.623 19.789V19.789L201.087 27.692 210.974 33.367 215.743 25.059 213.146 23.029 214.255 21.177 225.548 27.659 225.09 28.956C224.027 28.996 222.698 28.902 221.101 28.673V28.673ZM251.667 52.392V52.392C254.229 55.523 255.244 58.985 254.714 62.778 254.183 66.57 252.18 69.887 248.705 72.73V72.73C245.359 75.468 241.861 76.696 238.213 76.416 234.567 76.126 231.492 74.452 228.989 71.393V71.393C226.411 68.241 225.339 64.809 225.772 61.096 226.205 57.383 228.115 54.141 231.503 51.37V51.37C234.916 48.578 238.509 47.288 242.282 47.501 246.053 47.723 249.182 49.353 251.667 52.392ZM246.021 52.308V52.308C244.813 52.088 243.338 52.317 241.597 52.996 239.851 53.679 238.116 54.726 236.391 56.136V56.136C233.742 58.303 232.005 60.598 231.177 63.023 230.355 65.452 230.739 67.64 232.33 69.585V69.585C232.742 70.088 233.349 70.632 234.153 71.217V71.217C235.49 71.511 237.076 71.328 238.909 70.668 240.742 70.008 242.534 68.962 244.285 67.53V67.53C246.933 65.363 248.65 63.064 249.436 60.63 250.216 58.201 249.882 56.101 248.434 54.33V54.33C247.825 53.586 247.02 52.912 246.021 52.308ZM258.674 102.701L256.961 98.18 250.243 100.662 251.323 105.682 249.284 106.392 244.204 92.638 245.383 91.927C246.19 92.562 247.119 93.438 248.168 94.556V94.556L269.088 86.829 268.357 83.759 270.396 83.048 275.459 95.78C276.594 98.853 276.697 101.639 275.768 104.139 274.839 106.638 273.131 108.347 270.642 109.266V109.266C268.279 110.139 265.97 109.967 263.718 108.749 261.459 107.533 259.777 105.517 258.674 102.701ZM272.961 98.548L270.323 93.244 260.498 96.874C260.679 98.016 260.95 99.075 261.311 100.052V100.052C261.908 101.669 262.869 102.7 264.192 103.144 265.516 103.588 266.921 103.536 268.408 102.987V102.987C269.546 102.566 270.557 101.953 271.439 101.146 272.316 100.341 272.823 99.475 272.961 98.548Z" fill="#ffffff" data-fill-palette-color="primary"></path><path d="M4.177 143.521C4.177 137.458 9.092 132.543 15.155 132.543 21.218 132.543 26.133 137.458 26.133 143.521 26.133 149.584 21.218 154.499 15.155 154.499 9.092 154.499 4.177 149.584 4.177 143.521ZM254.856 143.521C254.856 137.458 259.771 132.543 265.834 132.543 271.897 132.543 276.812 137.458 276.812 143.521 276.812 149.584 271.897 154.499 265.834 154.499 259.771 154.499 254.856 149.584 254.856 143.521Z" fill="#ffffff" data-fill-palette-color="primary"></path></g></svg></g></svg></g></svg></g></svg></g><defs></defs></svg><rect width="280" height="280" fill="none" stroke="none" visibility="hidden"></rect></g></svg></g></svg>